<?xml version="1.0" encoding="UTF-8" standalone="no"?><!DOCTYPE svg PUBLIC "-//W3C//DTD SVG 1.1//EN" "http://www.w3.org/Graphics/SVG/1.1/DTD/svg11.dtd"><svg width="100%" height="100%" viewBox="0 0 2000 2000" version="1.1" xmlns="http://www.w3.org/2000/svg" xmlns:xlink="http://www.w3.org/1999/xlink" xml:space="preserve" xmlns:serif="http://www.serif.com/" style="fill-rule:evenodd;clip-rule:evenodd;stroke-linejoin:round;stroke-miterlimit:2;"><rect x="0" y="0" width="2000" height="2000" style="fill:#1890ff;"/><g><path d="M296.247,764.593l0,-126.72c-31.962,17.297 -67.684,24.442 -110.927,24.818l0,101.902l-64.676,0l0,15.417l64.676,0l0,259.833c0,53.771 5.64,84.981 27.826,107.543c17.297,17.297 42.491,25.946 77.085,25.946c56.78,0 88.366,-33.091 105.287,-78.966l-12.785,-7.144c-15.041,34.218 -33.842,46.251 -52.644,46.251c-22.561,0 -33.842,-11.281 -33.842,-42.867l0,-310.596l90.998,0l0,-15.417l-90.998,0Z" style="fill:#fff;fill-rule:nonzero;"/><path d="M566.609,560.036c-31.962,7.521 -69.189,10.529 -112.432,10.529c-15.041,0 -31.21,-0.752 -47.379,-2.256l0,16.169c37.227,0 49.26,21.809 49.26,67.684l0,438.82c0,42.867 -13.537,55.276 -49.26,55.276l0,16.169c20.306,-0.752 66.557,-3.008 106.039,-3.008c37.603,0 77.461,2.256 95.51,3.008l0,-16.169c-30.458,0 -41.738,-12.409 -41.738,-55.276l0,-214.71c0,-52.267 34.218,-89.117 76.709,-89.117c38.354,0 47.379,25.945 47.379,64.3l0,239.527c0,42.867 -10.905,55.276 -41.363,55.276l0,16.169c18.801,-0.752 60.54,-3.008 100.022,-3.008c37.603,0 81.974,2.256 101.527,3.008l0,-16.169c-35.722,0 -49.259,-12.409 -49.259,-55.276l0,-207.565c0,-52.267 -7.145,-80.469 -24.066,-100.023c-15.793,-18.049 -40.986,-30.082 -84.981,-30.082c-54.148,0 -100.399,19.178 -125.968,71.445l0,-264.721Z" style="fill:#fff;fill-rule:nonzero;"/><path d="M1105.83,1109.78c-48.883,0 -100.398,-41.738 -100.398,-148.905c0,-12.409 0.376,-25.194 1.504,-36.474l215.462,0c0,-120.704 -54.9,-171.092 -144.769,-171.092c-109.423,0 -188.388,71.069 -188.388,213.958c0,140.633 73.7,206.062 177.483,206.062c85.357,0 135.745,-62.044 154.17,-119.952l-13.913,-5.264c-31.21,51.139 -70.317,61.667 -101.151,61.667Zm-32.714,-339.925c37.603,0 53.772,64.676 52.268,139.881l-120.704,0c6.392,-99.647 33.842,-139.881 68.436,-139.881Z" style="fill:#fff;fill-rule:nonzero;"/><path d="M306.656,1657.73l41.889,0c185.618,0 235.193,-99.919 235.193,-176.011c0,-91.464 -71.48,-155.258 -217.899,-155.258c-19.984,0 -72.249,1.537 -123.746,1.537c-44.194,0 -93.001,-0.768 -119.518,-2.305l0,15.756c49.575,2.306 58.799,10.376 58.799,67.637l0,390.451c0,57.262 -8.839,65.332 -58.799,67.638l0,15.756c34.203,-1.153 79.551,-2.306 124.899,-2.306c56.108,0 111.063,1.153 143.345,2.306l0,-17.294c-69.944,-0.768 -84.163,-9.223 -84.163,-70.711l0,-137.196Zm48.807,-316.281c71.48,0 97.613,49.575 97.613,148.725c0,80.319 -19.6,151.799 -112.601,151.799l-33.819,0l0,-232.887c0,-54.186 8.455,-67.637 48.807,-67.637Z" style="fill:#fff;fill-rule:nonzero;"/><path d="M810.477,1464.81c-112.985,0 -192.536,59.183 -192.536,214.825c0,156.027 79.551,214.441 192.536,214.441c113.369,0 192.92,-58.414 192.92,-214.441c0,-155.642 -79.551,-214.825 -192.92,-214.825Zm0,15.756c43.042,0 74.17,58.414 74.17,199.069c0,141.039 -31.128,198.684 -74.17,198.684c-42.658,0 -73.786,-57.645 -73.786,-198.684c0,-140.655 31.128,-199.069 73.786,-199.069Z" style="fill:#fff;fill-rule:nonzero;"/><path d="M1207.08,1464.81c-71.48,0 -135.275,38.43 -135.275,108.373c0,63.41 47.27,99.15 98.766,139.502c45.348,35.356 79.551,61.104 79.551,107.22c0,40.352 -28.054,56.109 -55.34,56.109c-66.1,0 -96.46,-59.567 -106.067,-144.882l-16.91,0c0,79.55 -0.768,123.361 -3.074,157.179l16.525,0c3.843,-16.909 10.376,-28.054 19.215,-28.054c1.153,0 2.306,0.385 3.459,0.769c11.145,3.459 22.289,9.223 36.509,16.525c17.677,9.607 42.273,16.525 73.786,16.525c81.087,0 149.109,-44.964 149.109,-116.828c0,-62.257 -41.505,-96.076 -94.154,-134.89c-48.422,-36.125 -96.844,-62.257 -96.844,-109.526c0,-32.282 23.058,-50.728 53.418,-50.728c67.253,0 93.001,63.794 101.071,121.824l16.525,0c0,-69.943 0.769,-108.374 3.459,-138.349l-16.909,0c-2.691,19.599 -9.224,28.822 -18.447,28.822c-4.227,0 -8.839,-1.921 -14.219,-5.38c-15.372,-9.992 -49.959,-24.211 -94.154,-24.211Z" style="fill:#fff;fill-rule:nonzero;"/><path d="M1574.85,1476.34l0,-129.51c-32.665,17.678 -69.174,24.98 -113.369,25.364l0,104.146l-66.1,0l0,15.757l66.1,0l0,265.553c0,54.955 5.765,86.852 28.438,109.91c17.678,17.678 43.427,26.517 78.782,26.517c58.03,0 90.311,-33.819 107.605,-80.704l-13.066,-7.301c-15.372,34.971 -34.587,47.269 -53.803,47.269c-23.058,0 -34.587,-11.529 -34.587,-43.811l0,-317.433l93.001,0l0,-15.757l-93.001,0Z" style="fill:#fff;fill-rule:nonzero;"/><circle cx="1824.06" cy="1836.11" r="57.968" style="fill:#fff;"/></g></svg>