<?xml version="1.0" encoding="UTF-8" standalone="no"?><!DOCTYPE svg PUBLIC "-//W3C//DTD SVG 1.1//EN" "http://www.w3.org/Graphics/SVG/1.1/DTD/svg11.dtd"><svg width="100%" height="100%" viewBox="0 0 1316 1316" version="1.1" xmlns="http://www.w3.org/2000/svg" xmlns:xlink="http://www.w3.org/1999/xlink" xml:space="preserve" xmlns:serif="http://www.serif.com/" style="fill-rule:evenodd;clip-rule:evenodd;stroke-linejoin:round;stroke-miterlimit:1.41421;"><path d="M174.99,630.063l0,-69.035c-17.412,9.423 -36.873,13.315 -60.431,13.52l0,55.515l-35.234,0l0,8.398l35.234,0l0,141.552c0,29.294 3.073,46.296 15.159,58.587c9.423,9.423 23.148,14.135 41.995,14.135c30.932,0 48.139,-18.027 57.358,-43.019l-6.965,-3.892c-8.194,18.642 -18.437,25.197 -28.679,25.197c-12.291,0 -18.437,-6.146 -18.437,-23.353l0,-169.207l49.574,0l0,-8.398l-49.574,0Z" style="fill-rule:nonzero;"/><path d="M322.277,518.624c-17.412,4.097 -37.692,5.736 -61.25,5.736c-8.194,0 -17.002,-0.41 -25.811,-1.229l0,8.808c20.28,0 26.836,11.882 26.836,36.873l0,239.061c0,23.353 -7.375,30.113 -26.836,30.113l0,8.808c11.062,-0.409 36.259,-1.639 57.768,-1.639c20.485,0 42.199,1.23 52.032,1.639l0,-8.808c-16.593,0 -22.739,-6.76 -22.739,-30.113l0,-116.97c0,-28.474 18.642,-48.549 41.79,-48.549c20.895,0 25.811,14.134 25.811,35.029l0,130.49c0,23.353 -5.941,30.113 -22.533,30.113l0,8.808c10.242,-0.409 32.98,-1.639 54.49,-1.639c20.485,0 44.657,1.23 55.309,1.639l0,-8.808c-19.46,0 -26.835,-6.76 -26.835,-30.113l0,-113.078c0,-28.474 -3.892,-43.838 -13.111,-54.49c-8.603,-9.833 -22.328,-16.388 -46.296,-16.388c-29.498,0 -54.695,10.447 -68.625,38.922l0,-144.215Z" style="fill-rule:nonzero;"/><path d="M616.033,818.115c-26.631,0 -54.695,-22.738 -54.695,-81.121c0,-6.76 0.205,-13.725 0.819,-19.87l117.379,0c0,-65.757 -29.908,-93.207 -78.867,-93.207c-59.611,0 -102.63,38.717 -102.63,116.56c0,76.614 40.151,112.258 96.689,112.258c46.501,0 73.951,-33.8 83.989,-65.347l-7.58,-2.868c-17.002,27.859 -38.307,33.595 -55.104,33.595Zm-17.822,-185.184c20.485,0 29.293,35.234 28.474,76.204l-65.757,0c3.483,-54.285 18.437,-76.204 37.283,-76.204Z" style="fill-rule:nonzero;"/><path d="M180.661,1116.62l22.82,0c101.121,0 128.128,-54.434 128.128,-95.887c0,-49.828 -38.941,-84.582 -118.707,-84.582c-10.886,0 -39.359,0.838 -67.414,0.838c-24.076,0 -50.665,-0.419 -65.111,-1.257l0,8.584c27.008,1.256 32.032,5.653 32.032,36.848l0,212.709c0,31.195 -4.815,35.592 -32.032,36.848l0,8.583c18.633,-0.628 43.338,-1.256 68.042,-1.256c30.567,0 60.505,0.628 78.092,1.256l0,-9.421c-38.104,-0.418 -45.85,-5.024 -45.85,-38.522l0,-74.741Zm26.589,-172.304c38.94,0 53.177,27.008 53.177,81.023c0,43.756 -10.677,82.697 -61.343,82.697l-18.423,0l0,-126.872c0,-29.52 4.606,-36.848 26.589,-36.848Z" style="fill-rule:nonzero;"/><path d="M455.132,1011.53c-61.552,0 -104.89,32.241 -104.89,117.032c0,85 43.338,116.823 104.89,116.823c61.761,0 105.099,-31.823 105.099,-116.823c0,-84.791 -43.338,-117.032 -105.099,-117.032Zm0,8.584c23.448,0 40.406,31.822 40.406,108.448c0,76.835 -16.958,108.239 -40.406,108.239c-23.239,0 -40.197,-31.404 -40.197,-108.239c0,-76.626 16.958,-108.448 40.197,-108.448Z" style="fill-rule:nonzero;"/><path d="M671.191,1011.53c-38.941,0 -73.694,20.936 -73.694,59.039c0,34.545 25.751,54.015 53.805,75.998c24.705,19.261 43.338,33.288 43.338,58.411c0,21.983 -15.284,30.567 -30.148,30.567c-36.01,0 -52.55,-32.451 -57.784,-78.929l-9.211,0c0,43.338 -0.419,67.205 -1.675,85.629l9.002,0c2.094,-9.212 5.653,-15.284 10.468,-15.284c0.628,0 1.256,0.21 1.884,0.419c6.072,1.884 12.143,5.025 19.89,9.002c9.63,5.234 23.029,9.003 40.197,9.003c44.175,0 81.231,-24.495 81.231,-63.646c0,-33.916 -22.61,-52.34 -51.293,-73.485c-26.379,-19.68 -52.758,-33.916 -52.758,-59.667c0,-17.587 12.561,-27.636 29.101,-27.636c36.638,0 50.665,34.754 55.061,66.367l9.003,0c0,-38.103 0.418,-59.039 1.884,-75.369l-9.212,0c-1.465,10.677 -5.025,15.702 -10.049,15.702c-2.303,0 -4.815,-1.047 -7.746,-2.932c-8.375,-5.443 -27.217,-13.189 -51.294,-13.189Z" style="fill-rule:nonzero;"/><path d="M871.549,1017.81l0,-70.555c-17.796,9.631 -37.685,13.609 -61.761,13.818l0,56.737l-36.01,0l0,8.583l36.01,0l0,144.668c0,29.939 3.14,47.315 15.492,59.877c9.631,9.631 23.658,14.446 42.919,14.446c31.613,0 49.2,-18.424 58.621,-43.966l-7.118,-3.978c-8.375,19.052 -18.843,25.752 -29.311,25.752c-12.561,0 -18.842,-6.281 -18.842,-23.867l0,-172.932l50.665,0l0,-8.583l-50.665,0Z" style="fill-rule:nonzero;"/><path d="M1315.03,1315.03l-1315.03,0l0,-1315.03l1315.03,0l0,1315.03Zm-1283.03,-1283.03l0,1251.03l1251.03,0l0,-1251.03l-1251.03,0Z"/><circle cx="1007.31" cy="1213.8" r="31.58"/></svg>